<svg xmlns="http://www.w3.org/2000/svg" viewBox="0 0 480 280">
  <defs>
    <linearGradient id="posBg" x1="0" y1="0" x2="1" y2="1">
      <stop offset="0%" stop-color="#0b0920"/>
      <stop offset="100%" stop-color="#100e22"/>
    </linearGradient>
    <linearGradient id="posBar1" x1="0" y1="1" x2="0" y2="0">
      <stop offset="0%" stop-color="#3730a3"/>
      <stop offset="100%" stop-color="#7c70f5"/>
    </linearGradient>
    <linearGradient id="posBar2" x1="0" y1="1" x2="0" y2="0">
      <stop offset="0%" stop-color="#4641f0"/>
      <stop offset="100%" stop-color="#a5b4fc"/>
    </linearGradient>
    <radialGradient id="posGlow" cx="60%" cy="40%" r="50%">
      <stop offset="0%" stop-color="#4641f0" stop-opacity="0.12"/>
      <stop offset="100%" stop-color="#4641f0" stop-opacity="0"/>
    </radialGradient>
  </defs>

  <!-- BG -->
  <rect width="480" height="280" fill="url(#posBg)"/>
  <rect width="480" height="280" fill="url(#posGlow)"/>

  <!-- ── SIDEBAR ── -->
  <rect width="88" height="280" fill="#08071a"/>
  <rect x="88" y="0" width="1" height="280" fill="rgba(255,255,255,0.06)"/>

  <!-- Sidebar logo -->
  <rect x="10" y="12" width="68" height="34" rx="8" fill="rgba(70,65,240,0.2)"/>
  <circle cx="30" cy="29" r="9" fill="#4641f0"/>
  <rect x="44" y="23" width="28" height="7" rx="3" fill="rgba(255,255,255,0.8)"/>
  <rect x="44" y="33" width="20" height="5" rx="2" fill="rgba(255,255,255,0.35)"/>

  <!-- Sidebar menu items -->
  <rect x="8" y="60" width="72" height="28" rx="7" fill="rgba(70,65,240,0.28)"/>
  <rect x="18" y="70" width="10" height="9" rx="2" fill="#6d68f5"/>
  <rect x="34" y="72" width="34" height="7" rx="2" fill="rgba(255,255,255,0.85)"/>

  <rect x="8" y="96" width="72" height="26" rx="7"/>
  <rect x="18" y="105" width="10" height="9" rx="2" fill="rgba(255,255,255,0.28)"/>
  <rect x="34" y="107" width="28" height="7" rx="2" fill="rgba(255,255,255,0.40)"/>

  <rect x="8" y="130" width="72" height="26" rx="7"/>
  <rect x="18" y="139" width="10" height="9" rx="2" fill="rgba(255,255,255,0.28)"/>
  <rect x="34" y="141" width="36" height="7" rx="2" fill="rgba(255,255,255,0.40)"/>

  <rect x="8" y="164" width="72" height="26" rx="7"/>
  <rect x="18" y="173" width="10" height="9" rx="2" fill="rgba(255,255,255,0.28)"/>
  <rect x="34" y="175" width="30" height="7" rx="2" fill="rgba(255,255,255,0.40)"/>

  <rect x="8" y="198" width="72" height="26" rx="7"/>
  <rect x="18" y="207" width="10" height="9" rx="2" fill="rgba(255,255,255,0.28)"/>
  <rect x="34" y="209" width="24" height="7" rx="2" fill="rgba(255,255,255,0.40)"/>

  <!-- Sidebar avatar bottom -->
  <circle cx="44" cy="258" r="14" fill="rgba(70,65,240,0.25)"/>
  <circle cx="44" cy="258" r="9" fill="#4641f0"/>

  <!-- ── TOP BAR ── -->
  <rect x="88" y="0" width="392" height="44" fill="rgba(8,7,24,0.8)"/>
  <rect x="88" y="44" width="392" height="1" fill="rgba(255,255,255,0.07)"/>
  <!-- Search bar -->
  <rect x="100" y="12" width="160" height="20" rx="8" fill="rgba(255,255,255,0.06)"/>
  <rect x="112" y="17" width="8" height="10" rx="2" fill="rgba(255,255,255,0.28)"/>
  <rect x="126" y="18" width="80" height="7" rx="2" fill="rgba(255,255,255,0.22)"/>
  <!-- Right side avatar -->
  <circle cx="452" cy="22" r="14" fill="rgba(70,65,240,0.3)"/>
  <circle cx="452" cy="22" r="9" fill="#4641f0"/>
  <!-- Notification dot -->
  <circle cx="466" cy="10" r="5" fill="#f87171"/>

  <!-- ── STAT CARDS ── -->
  <rect x="100" y="54" width="86" height="58" rx="10" fill="rgba(255,255,255,0.04)" stroke="rgba(255,255,255,0.08)" stroke-width="1"/>
  <rect x="110" y="64" width="48" height="7" rx="3" fill="rgba(255,255,255,0.38)"/>
  <rect x="110" y="77" width="52" height="16" rx="3" fill="rgba(255,255,255,0.92)"/>
  <rect x="110" y="98" width="40" height="6" rx="2" fill="rgba(74,222,128,0.65)"/>

  <rect x="196" y="54" width="86" height="58" rx="10" fill="rgba(255,255,255,0.04)" stroke="rgba(255,255,255,0.08)" stroke-width="1"/>
  <rect x="206" y="64" width="48" height="7" rx="3" fill="rgba(255,255,255,0.38)"/>
  <rect x="206" y="77" width="52" height="16" rx="3" fill="rgba(255,255,255,0.92)"/>
  <rect x="206" y="98" width="40" height="6" rx="2" fill="rgba(74,222,128,0.65)"/>

  <rect x="292" y="54" width="86" height="58" rx="10" fill="rgba(255,255,255,0.04)" stroke="rgba(255,255,255,0.08)" stroke-width="1"/>
  <rect x="302" y="64" width="48" height="7" rx="3" fill="rgba(255,255,255,0.38)"/>
  <rect x="302" y="77" width="52" height="16" rx="3" fill="rgba(255,255,255,0.92)"/>
  <rect x="302" y="98" width="40" height="6" rx="2" fill="rgba(252,165,165,0.65)"/>

  <rect x="388" y="54" width="84" height="58" rx="10" fill="rgba(70,65,240,0.18)" stroke="rgba(70,65,240,0.35)" stroke-width="1"/>
  <rect x="398" y="64" width="48" height="7" rx="3" fill="rgba(255,255,255,0.45)"/>
  <rect x="398" y="77" width="52" height="16" rx="3" fill="rgba(255,255,255,0.95)"/>
  <rect x="398" y="98" width="48" height="6" rx="2" fill="rgba(109,104,245,0.85)"/>

  <!-- ── CHART ── -->
  <rect x="100" y="122" width="220" height="130" rx="12" fill="rgba(255,255,255,0.03)" stroke="rgba(255,255,255,0.07)" stroke-width="1"/>
  <rect x="112" y="134" width="76" height="8" rx="3" fill="rgba(255,255,255,0.60)"/>
  <rect x="112" y="146" width="46" height="6" rx="2" fill="rgba(255,255,255,0.24)"/>
  <!-- Horizontal grid lines -->
  <line x1="112" y1="188" x2="308" y2="188" stroke="rgba(255,255,255,0.05)" stroke-width="1"/>
  <line x1="112" y1="208" x2="308" y2="208" stroke="rgba(255,255,255,0.05)" stroke-width="1"/>
  <line x1="112" y1="228" x2="308" y2="228" stroke="rgba(255,255,255,0.05)" stroke-width="1"/>
  <line x1="112" y1="245" x2="308" y2="245" stroke="rgba(255,255,255,0.05)" stroke-width="1"/>
  <!-- Bars -->
  <rect x="116" y="228" width="18" height="17" rx="4" fill="url(#posBar1)" opacity="0.55"/>
  <rect x="140" y="210" width="18" height="35" rx="4" fill="url(#posBar1)" opacity="0.70"/>
  <rect x="164" y="190" width="18" height="55" rx="4" fill="url(#posBar2)"/>
  <rect x="188" y="205" width="18" height="40" rx="4" fill="url(#posBar1)" opacity="0.75"/>
  <rect x="212" y="218" width="18" height="27" rx="4" fill="url(#posBar1)" opacity="0.60"/>
  <rect x="236" y="185" width="18" height="60" rx="4" fill="url(#posBar2)"/>
  <rect x="260" y="198" width="18" height="47" rx="4" fill="url(#posBar1)" opacity="0.80"/>
  <rect x="284" y="222" width="18" height="23" rx="4" fill="url(#posBar1)" opacity="0.55"/>

  <!-- ── TRANSACTIONS TABLE ── -->
  <rect x="330" y="122" width="142" height="130" rx="12" fill="rgba(255,255,255,0.03)" stroke="rgba(255,255,255,0.07)" stroke-width="1"/>
  <rect x="342" y="134" width="76" height="8" rx="3" fill="rgba(255,255,255,0.60)"/>
  <!-- Row dividers + content -->
  <line x1="330" y1="156" x2="472" y2="156" stroke="rgba(255,255,255,0.07)" stroke-width="1"/>
  <circle cx="348" cy="170" r="8" fill="rgba(70,65,240,0.30)"/>
  <rect x="362" y="164" width="52" height="7" rx="2" fill="rgba(255,255,255,0.55)"/>
  <rect x="362" y="174" width="38" height="5" rx="2" fill="rgba(255,255,255,0.24)"/>
  <rect x="432" y="166" width="30" height="8" rx="3" fill="rgba(74,222,128,0.55)"/>

  <line x1="330" y1="190" x2="472" y2="190" stroke="rgba(255,255,255,0.07)" stroke-width="1"/>
  <circle cx="348" cy="204" r="8" fill="rgba(179,24,24,0.30)"/>
  <rect x="362" y="198" width="52" height="7" rx="2" fill="rgba(255,255,255,0.55)"/>
  <rect x="362" y="208" width="38" height="5" rx="2" fill="rgba(255,255,255,0.24)"/>
  <rect x="432" y="200" width="30" height="8" rx="3" fill="rgba(252,165,165,0.55)"/>

  <line x1="330" y1="224" x2="472" y2="224" stroke="rgba(255,255,255,0.07)" stroke-width="1"/>
  <circle cx="348" cy="238" r="8" fill="rgba(70,65,240,0.30)"/>
  <rect x="362" y="232" width="52" height="7" rx="2" fill="rgba(255,255,255,0.55)"/>
  <rect x="362" y="242" width="38" height="5" rx="2" fill="rgba(255,255,255,0.24)"/>
  <rect x="432" y="234" width="30" height="8" rx="3" fill="rgba(74,222,128,0.55)"/>
</svg>
